<?xml version="1.0" encoding="UTF-8"?>
<svg xmlns="http://www.w3.org/2000/svg" version="1.1" viewBox="0 0 841.9 595.3">
  <defs>
    <style>
      .cls-1 {
        fill: #007cff;
      }

      .cls-2 {
        fill: #002cb8;
      }

      .cls-3 {
        fill: #6fbaf7;
      }
    </style>
  </defs>
  <!-- Generator: Adobe Illustrator 28.6.0, SVG Export Plug-In . SVG Version: 1.2.0 Build 709)  -->
  <g>
    <g id="katman_1">
      <path class="cls-3" d="M623.6,297.4c0,38-8.9,75.6-26.1,109.5-2.8,5.4-3.4,11.7-1.8,17.5,1.6,5.9,5.3,10.9,10.5,14.2,2.8,1.8,6,3,9.4,3.5,3.3.5,6.7.3,10-.6,3.3-.9,6.3-2.5,8.9-4.6,2.6-2.1,4.8-4.8,6.3-7.8,20.8-40.8,31.6-85.9,31.5-131.7,0-45.7-10.7-90.8-31.4-131.5-1.5-3-3.7-5.7-6.3-7.8-2.6-2.1-5.6-3.7-8.9-4.6-3.3-.9-6.7-1.1-10-.6-3.3.5-6.5,1.7-9.4,3.5-5.1,3.3-8.9,8.3-10.5,14.2-1.6,5.9-.9,12.1,1.8,17.5,17.2,33.9,26.1,71.3,26,109.3Z"/>
      <path class="cls-3" d="M545,297.4c0,23.6-5,46.9-14.9,68.3-2.5,5.4-2.9,11.4-1.2,17.1,1.7,5.7,5.4,10.5,10.4,13.7,2.9,1.8,6.2,3,9.7,3.5,3.4.5,6.9.2,10.2-.8,3.3-1,6.4-2.7,9-4.9,2.6-2.3,4.7-5.1,6.2-8.2,12.8-27.8,19.4-58,19.3-88.6,0-30.5-6.5-60.7-19.2-88.4-1.4-3.2-3.5-6-6.2-8.2s-5.7-4-9-5c-3.3-1-6.8-1.3-10.2-.8-3.4.5-6.7,1.7-9.7,3.5-5,3.1-8.7,8-10.4,13.6-1.7,5.7-1.3,11.7,1.2,17.1,9.8,21.4,14.8,44.6,14.8,68.2Z"/>
      <path class="cls-1" d="M381.7,460.8c-21.5,0-42.7-4.1-62.6-12.4-19.8-8.2-37.8-20.3-53-35.5-15.2-15.1-27.3-33.1-35.5-53-8.2-19.8-12.4-41.1-12.4-62.6,0-21.5,4.1-42.7,12.4-62.6,8.2-19.8,20.3-37.8,35.5-53,15.1-15.2,33.1-27.3,53-35.5,19.8-8.2,41.1-12.4,62.6-12.4,36.1-.2,71.2,11.8,99.8,34,4.7,3.6,10.5,5.4,16.4,5.1,5.9-.4,11.5-2.9,15.7-7,2.4-2.4,4.3-5.4,5.5-8.6,1.2-3.2,1.7-6.7,1.5-10.1-.2-3.4-1.2-6.8-2.8-9.8-1.6-3-3.9-5.7-6.6-7.8-37-28.7-82.6-44.3-129.5-44.3-27.8,0-55.4,5.4-81.1,16-25.7,10.7-49.1,26.3-68.7,46-19.7,19.6-35.4,43-46.1,68.7-10.7,25.7-16.1,53.3-16,81.2,0,27.8,5.5,55.4,16.1,81.1,10.7,25.7,26.3,49.1,46,68.8,19.6,19.7,43,35.4,68.7,46.1,25.7,10.7,53.3,16.1,81.2,16,47,.1,92.7-15.5,129.8-44.4,2.7-2.1,4.9-4.7,6.5-7.7,1.6-3,2.5-6.3,2.7-9.7.2-3.4-.3-6.8-1.5-10-1.2-3.2-3.1-6.1-5.5-8.5l-.5-.5c-4.1-4.1-9.6-6.6-15.4-7-5.8-.4-11.6,1.4-16.2,4.9-28.6,22.2-63.8,34.2-100,34.1Z"/>
      <path class="cls-2" d="M508.7,280.1c-4.6-4.6-10.8-7.2-17.3-7.2h-85.1c-6.5.1-12.7,2.7-17.3,7.3-4.6,4.6-7.2,10.8-7.2,17.3s2.6,12.7,7.2,17.3c4.6,4.6,10.8,7.2,17.3,7.2h57c-5.5,18-16.7,33.7-32.1,44.7-15.3,11-33.9,16.5-52.7,15.8-46-1.7-82.6-40.3-82-86.3.3-22.4,9.4-43.7,25.4-59.5,15.9-15.7,37.4-24.5,59.8-24.5,16,0,31.7,4.5,45.3,13,4.7,2.9,10.3,4.2,15.8,3.5,5.5-.6,10.7-3.1,14.6-7.1,2.6-2.6,4.6-5.7,5.8-9.2,1.2-3.4,1.6-7.1,1.2-10.7-.4-3.6-1.6-7.1-3.5-10.2s-4.5-5.7-7.6-7.7c-29.1-18.4-64.6-25.1-100.6-17.6-25.2,5.3-48.3,17.9-66.5,36.2-18.2,18.3-30.6,41.5-35.7,66.7-17.6,86.2,48.1,162.3,131.3,162.3,35.6,0,69.7-14.2,94.8-39.3s39.3-59.2,39.3-94.8c0-6.5-2.6-12.7-7.2-17.3Z"/>
    </g>
  </g>
</svg>